<svg id="visual" viewBox="0 0 900 600" width="900" height="600" xmlns="http://www.w3.org/2000/svg" xmlns:xlink="http://www.w3.org/1999/xlink" version="1.1"><rect x="0" y="0" width="900" height="600" fill="#67799f"></rect><path d="M0 407L129 390L257 371L386 352L514 432L643 356L771 379L900 439L900 601L771 601L643 601L514 601L386 601L257 601L129 601L0 601Z" fill="#365172"></path><path d="M0 432L129 428L257 437L386 461L514 450L643 401L771 409L900 408L900 601L771 601L643 601L514 601L386 601L257 601L129 601L0 601Z" fill="#2a3f57"></path><path d="M0 438L129 499L257 511L386 459L514 469L643 503L771 494L900 507L900 601L771 601L643 601L514 601L386 601L257 601L129 601L0 601Z" fill="#1f2e3d"></path><path d="M0 541L129 517L257 512L386 509L514 509L643 494L771 486L900 511L900 601L771 601L643 601L514 601L386 601L257 601L129 601L0 601Z" fill="#161d25"></path><path d="M0 541L129 574L257 573L386 568L514 568L643 540L771 541L900 534L900 601L771 601L643 601L514 601L386 601L257 601L129 601L0 601Z" fill="#080a0c"></path></svg>