<svg id="visual" viewBox="0 0 900 600" width="900" height="600" xmlns="http://www.w3.org/2000/svg" xmlns:xlink="http://www.w3.org/1999/xlink" version="1.1"><rect x="0" y="0" width="900" height="600" fill="#67799f"></rect><path d="M0 364L129 439L257 439L386 414L514 352L643 383L771 433L900 403L900 601L771 601L643 601L514 601L386 601L257 601L129 601L0 601Z" fill="#365172"></path><path d="M0 450L129 469L257 453L386 463L514 417L643 475L771 471L900 411L900 601L771 601L643 601L514 601L386 601L257 601L129 601L0 601Z" fill="#2a3f57"></path><path d="M0 457L129 453L257 507L386 485L514 451L643 445L771 488L900 494L900 601L771 601L643 601L514 601L386 601L257 601L129 601L0 601Z" fill="#1f2e3d"></path><path d="M0 504L129 500L257 526L386 503L514 497L643 522L771 502L900 542L900 601L771 601L643 601L514 601L386 601L257 601L129 601L0 601Z" fill="#161d25"></path><path d="M0 549L129 569L257 538L386 534L514 528L643 562L771 524L900 530L900 601L771 601L643 601L514 601L386 601L257 601L129 601L0 601Z" fill="#080a0c"></path></svg>