<svg xmlns="http://www.w3.org/2000/svg" xmlns:xlink="http://www.w3.org/1999/xlink" width="1080" zoomAndPan="magnify" viewBox="0 0 810 599.999999" height="800" preserveAspectRatio="xMidYMid meet" version="1.0"><defs><filter x="0%" y="0%" width="100%" height="100%" id="68f45f06e6"><feColorMatrix values="0 0 0 0 1 0 0 0 0 1 0 0 0 0 1 0 0 0 1 0" color-interpolation-filters="sRGB"/></filter><clipPath id="d1c216a4cc"><path d="M 372 97 L 810 97 L 810 600 L 372 600 Z M 372 97 " clip-rule="nonzero"/></clipPath><clipPath id="2600cda3b9"><path d="M 1272.625 577.507812 L 584.046875 900.339844 L 261.214844 211.761719 L 949.792969 -111.070312 Z M 1272.625 577.507812 " clip-rule="nonzero"/></clipPath><clipPath id="cd63eab502"><path d="M 1272.625 577.507812 L 584.046875 900.339844 L 261.214844 211.761719 L 949.792969 -111.070312 Z M 1272.625 577.507812 " clip-rule="nonzero"/></clipPath><mask id="cb462dc754"><g filter="url(#68f45f06e6)"><rect x="-81" width="972" fill="#000000" y="-60" height="719.999999" fill-opacity="0.25"/></g></mask><clipPath id="1786a5179a"><path d="M 0 0 L 356 0 L 356 600 L 0 600 Z M 0 0 " clip-rule="nonzero"/></clipPath><clipPath id="4631a75623"><path d="M 669.050781 345.230469 L -77.445312 908.644531 L -640.863281 162.148438 L 105.632812 -401.265625 Z M 669.050781 345.230469 " clip-rule="nonzero"/></clipPath><clipPath id="ad38d11323"><path d="M 669.050781 345.230469 L -77.445312 908.644531 L -640.863281 162.148438 L 105.632812 -401.265625 Z M 669.050781 345.230469 " clip-rule="nonzero"/></clipPath><clipPath id="220658c496"><rect x="0" width="592" y="0" height="600"/></clipPath></defs><rect x="-81" width="972" fill="#ffffff" y="-60" height="719.999999" fill-opacity="1"/><rect x="-81" width="972" fill="#ffffff" y="-60" height="719.999999" fill-opacity="1"/><g clip-path="url(#d1c216a4cc)"><g clip-path="url(#2600cda3b9)"><g clip-path="url(#cd63eab502)"><path fill="#dbd2cb" d="M 1011.019531 378.9375 C 851.898438 557.699219 1081.105469 573.21875 966.835938 692.480469 C 852.5625 811.746094 687.554688 727.824219 631.675781 544.859375 C 595.101562 424.917969 249.40625 341.539062 418.414062 172.757812 C 587.421875 3.976562 688.246094 177.460938 835.605469 138.445312 C 1010.980469 92.175781 1093.242188 286.628906 1011.019531 378.9375 Z M 1011.019531 378.9375 " fill-opacity="1" fill-rule="nonzero"/></g></g></g><g mask="url(#cb462dc754)"><g transform="matrix(1, 0, 0, 1, 0, -0.000000000000034788)"><g clip-path="url(#220658c496)"><g clip-path="url(#1786a5179a)"><g clip-path="url(#4631a75623)"><g clip-path="url(#ad38d11323)"><path fill="#dbd2cb" d="M 303.945312 172.832031 C 157.957031 428.273438 437.59375 388.71875 330.441406 561.199219 C 223.289062 733.679688 3.492188 674.652344 -110.195312 468.769531 C -184.660156 333.792969 -621.648438 321.316406 -461.234375 75.367188 C -300.820312 -170.578125 -135.476562 12.480469 31.859375 -71.878906 C 231.050781 -172.078125 379.390625 40.917969 303.945312 172.832031 Z M 303.945312 172.832031 " fill-opacity="1" fill-rule="nonzero"/></g></g></g></g></g></g></svg>