<?xml version="1.0" standalone="no"?>
<!DOCTYPE svg PUBLIC "-//W3C//DTD SVG 20010904//EN"
 "http://www.w3.org/TR/2001/REC-SVG-20010904/DTD/svg10.dtd">
<svg version="1.0" xmlns="http://www.w3.org/2000/svg"
 width="1652.000000pt" height="945.000000pt" viewBox="0 0 1652.000000 945.000000"
 preserveAspectRatio="xMidYMid meet">

<g transform="translate(0.000000,945.000000) scale(0.100000,-0.100000)"
fill="#000000" stroke="none">
<path d="M0 4725 l0 -4725 8022 0 8023 0 -130 131 c-72 72 -166 158 -210 192
-44 33 -82 63 -85 67 -18 21 -147 113 -207 148 -40 23 -75 47 -78 52 -5 9
-144 114 -219 165 -68 47 -135 88 -191 116 -33 17 -85 44 -115 60 -30 16 -66
29 -80 29 -25 0 -59 16 -271 127 -164 86 -270 130 -331 138 -52 6 -198 45
-268 70 -56 20 -95 33 -265 89 -121 41 -181 55 -247 60 -47 4 -101 11 -120 17
-18 5 -72 14 -121 19 -48 6 -118 17 -155 26 -145 34 -189 43 -247 53 -69 12
-213 26 -235 23 -64 -8 -222 -2 -300 12 -371 66 -419 72 -506 59 -49 -7 -117
-8 -203 -2 -124 9 -164 15 -256 38 -104 25 -164 35 -206 32 -25 -1 -72 4 -105
12 -32 9 -106 18 -164 22 -113 8 -117 9 -256 89 -94 54 -211 96 -268 96 -48 0
-52 2 -115 68 -37 37 -78 81 -92 97 -31 36 -63 64 -130 111 -27 20 -49 39 -49
42 0 4 -16 24 -34 45 -32 34 -75 130 -92 201 -5 21 -17 33 -45 45 -54 23 -93
105 -109 230 -7 52 -17 105 -23 118 l-10 23 -424 0 -423 0 0 48 c0 26 -6 60
-13 75 l-12 27 -157 0 -158 0 0 63 c0 35 5 68 10 73 6 6 10 90 11 212 0 114 4
204 10 207 5 4 9 17 9 31 0 13 5 24 10 24 6 0 10 20 10 44 0 25 5 48 10 51 6
3 10 21 10 40 0 19 5 37 10 40 6 3 10 46 10 96 l0 89 150 0 150 0 0 29 c0 17
5 33 10 36 6 3 10 17 10 31 0 13 5 24 10 24 6 0 10 11 10 24 0 14 4 27 9 30 5
4 12 29 16 56 4 27 11 52 16 56 5 3 9 16 9 29 0 13 5 27 10 30 6 3 10 17 10
31 0 13 5 24 10 24 6 0 10 7 10 15 0 13 -141 15 -1210 15 -1047 0 -1210 2
-1210 14 0 8 4 18 10 21 6 3 10 37 10 76 0 62 -2 69 -20 69 -13 0 -22 -9 -26
-25 -4 -16 -13 -25 -25 -25 -10 0 -19 1 -19 3 0 1 15 40 33 87 34 86 59 111
72 71 10 -32 23 -25 44 22 11 24 27 50 36 57 8 7 15 17 15 22 0 39 -22 38
1240 38 1288 0 1240 -2 1240 44 0 9 3 16 8 16 11 0 42 77 42 105 l0 25 309 0
309 0 28 48 c15 26 34 53 42 61 37 37 47 65 44 123 -3 51 -1 60 23 83 22 23
33 26 77 23 49 -3 52 -2 67 29 9 17 24 34 33 36 9 3 26 19 36 36 19 31 152
158 245 234 26 21 47 45 47 52 0 9 10 15 23 15 52 0 57 21 57 218 0 173 -1
182 -21 192 -11 7 -27 9 -35 6 -11 -4 -15 0 -12 17 2 17 13 24 53 34 28 6 65
12 83 12 30 1 32 -1 32 -34 0 -19 2 -35 5 -35 2 0 24 14 48 31 85 59 173 58
223 -5 l27 -34 44 34 c41 32 97 54 136 54 35 0 88 -30 105 -60 20 -35 30 -37
84 -10 23 11 50 20 59 20 10 0 20 4 23 9 3 5 17 12 30 15 14 3 38 11 53 18 51
20 186 68 323 113 144 48 169 55 325 103 55 17 192 60 305 96 374 119 407 128
830 230 80 19 177 42 215 50 39 8 102 22 140 31 143 32 365 75 545 106 69 11
128 23 131 25 3 1 34 8 70 14 35 5 100 17 144 25 93 17 474 82 557 95 31 4 81
13 110 19 65 13 200 37 288 51 137 22 808 131 865 140 53 8 206 26 275 33 l25
2 3 1003 2 1002 -8260 0 -8260 0 0 -4725z m5485 1768 c60 -16 65 -16 83 0 38
34 42 23 42 -109 0 -111 -2 -125 -16 -122 -10 2 -22 21 -30 46 -30 103 -94
153 -197 153 -77 0 -105 -10 -156 -56 -60 -55 -84 -125 -84 -250 0 -154 40
-236 137 -281 96 -45 224 -27 306 43 36 31 43 34 56 22 12 -13 8 -20 -28 -58
-23 -23 -65 -55 -92 -69 -46 -24 -62 -27 -156 -27 -97 0 -110 2 -164 30 -120
60 -182 188 -174 353 12 257 213 394 473 325z m4050 1 c45 -16 49 -16 61 1 7
10 20 15 29 12 12 -5 15 -26 15 -112 0 -93 -2 -106 -16 -103 -9 2 -25 26 -35
54 -11 29 -31 64 -46 78 -50 50 -148 56 -200 12 -18 -16 -24 -31 -25 -62 -1
-72 21 -94 177 -184 143 -82 178 -126 178 -219 0 -83 -33 -136 -113 -177 -45
-22 -165 -23 -238 -1 -50 15 -53 15 -65 -3 -6 -11 -19 -20 -28 -20 -13 0 -17
16 -22 83 -11 139 -10 157 13 157 14 0 22 -10 30 -38 27 -101 87 -145 192
-140 75 4 112 27 123 79 15 69 -30 128 -155 199 -147 84 -190 135 -190 226 0
80 39 135 115 162 46 16 146 14 200 -4z m-918 -180 c12 -3 27 -19 33 -35 10
-24 10 -33 -4 -54 -19 -29 -46 -32 -88 -7 l-30 17 -40 -45 -40 -45 4 -141 c3
-158 7 -169 69 -179 24 -4 39 -12 39 -21 0 -11 -26 -14 -140 -14 -113 0 -140
3 -140 14 0 8 15 17 34 20 19 4 37 14 40 22 3 9 6 100 6 204 0 201 0 200 -51
200 -10 0 -19 7 -19 15 0 15 40 29 118 41 l42 7 0 -57 0 -58 33 44 c18 24 48
51 67 60 39 20 37 20 67 12z m334 -4 c19 0 42 -12 67 -34 l37 -34 5 -186 c6
-208 11 -223 60 -194 19 11 32 13 36 6 10 -16 -30 -62 -69 -77 -48 -18 -85 -8
-100 29 l-13 29 -43 -29 c-77 -52 -161 -52 -213 0 -23 23 -28 37 -28 75 0 92
56 144 201 186 l81 23 -4 63 c-5 75 -25 102 -84 109 -52 6 -64 -4 -75 -62 -11
-60 -28 -79 -63 -70 -54 13 -41 99 20 137 34 21 117 40 142 33 8 -2 27 -4 43
-4z m-2885 -19 c147 -67 176 -333 49 -449 -136 -126 -362 -53 -392 127 -34
205 61 341 237 341 42 0 79 -7 106 -19z m364 -21 c0 -22 3 -40 6 -40 3 0 20
12 38 27 43 36 87 53 142 53 42 0 51 -4 85 -40 l39 -40 51 37 c44 31 62 38
114 41 54 4 65 1 91 -21 44 -38 54 -84 54 -261 0 -87 4 -166 10 -176 5 -10 23
-21 40 -25 16 -4 30 -13 30 -21 0 -11 -24 -14 -125 -14 -101 0 -125 3 -125 14
0 8 14 17 30 21 17 4 35 15 40 25 14 25 13 299 -1 339 -21 61 -88 69 -162 20
l-47 -31 1 -146 c1 -183 4 -194 52 -206 20 -5 37 -15 37 -23 0 -10 -29 -13
-130 -13 -109 0 -130 2 -130 15 0 8 8 15 18 15 10 0 28 7 40 16 21 15 22 21
22 183 0 155 -2 170 -21 195 -30 38 -90 36 -152 -5 l-47 -31 0 -148 c0 -170 7
-198 50 -206 16 -4 30 -13 30 -20 0 -11 -25 -14 -120 -14 -100 0 -120 3 -120
15 0 8 9 15 19 15 47 0 51 19 51 219 0 198 -3 211 -47 211 -38 0 -27 28 15 39
117 30 122 29 122 -19z m920 -2 l0 -41 23 20 c45 42 91 63 140 63 113 0 182
-91 182 -240 -1 -129 -51 -225 -140 -266 -58 -28 -132 -31 -175 -9 l-30 16 0
-95 c0 -108 10 -126 66 -126 27 0 34 -4 34 -20 0 -19 -7 -20 -135 -20 -112 0
-135 2 -135 15 0 8 14 18 32 23 22 5 35 16 39 33 12 40 10 588 -1 610 -7 12
-21 19 -40 19 -39 0 -40 27 -2 36 15 3 41 10 57 14 17 5 42 9 58 9 25 1 27 -2
27 -41z m738 22 c53 -33 62 -68 62 -253 0 -139 3 -167 16 -178 13 -11 21 -11
45 3 42 24 47 3 9 -37 -52 -54 -132 -54 -146 0 -8 31 -8 31 -47 1 -18 -14 -54
-31 -80 -38 -90 -24 -168 26 -169 108 -1 88 60 144 202 185 l80 23 0 43 c0 59
-23 111 -55 123 -65 25 -115 -3 -115 -64 0 -35 -21 -66 -45 -66 -23 0 -45 30
-45 61 0 35 34 73 83 94 50 22 165 19 205 -5z m1814 -172 c4 -210 10 -238 58
-258 34 -14 95 0 134 31 l26 21 -2 166 -3 167 -37 9 c-40 10 -50 31 -20 40 9
2 50 8 90 11 l72 7 0 -215 c0 -119 3 -222 6 -231 3 -8 21 -18 40 -22 23 -4 34
-12 34 -23 0 -13 -16 -20 -70 -29 -102 -17 -100 -18 -100 29 l0 41 -32 -28
c-47 -39 -89 -54 -151 -54 -41 0 -61 6 -82 22 -49 38 -58 77 -61 263 -2 148
-5 171 -20 182 -10 7 -26 13 -36 13 -26 0 -22 29 5 35 23 5 74 11 119 13 l26
2 4 -192z m-4496 -643 c29 -19 38 -55 14 -55 -10 0 -20 7 -24 15 -8 23 -52 36
-81 25 -30 -11 -35 -56 -7 -64 9 -3 36 -10 59 -16 54 -14 73 -33 73 -75 0 -86
-159 -99 -188 -16 -9 27 -9 31 6 31 10 0 22 -10 27 -22 21 -47 120 -42 120 7
0 21 -23 35 -95 56 -58 18 -75 55 -44 96 33 44 89 51 140 18z m2162 -2 c-5
-26 -38 -29 -38 -4 0 15 6 21 21 21 14 0 19 -5 17 -17z m2032 -107 l0 -124
-54 -6 c-63 -8 -89 3 -107 46 -29 71 22 155 88 145 32 -6 33 -5 33 29 0 27 4
34 20 34 19 0 20 -7 20 -124z m-612 86 c2 -12 8 -22 13 -22 5 0 9 -9 9 -20 0
-11 -4 -20 -10 -20 -6 0 -10 -27 -10 -60 0 -33 4 -60 10 -60 13 0 13 -27 0
-35 -5 -3 -19 -1 -30 5 -17 9 -20 21 -20 80 0 72 -2 75 -45 70 -32 -3 -45 -30
-45 -92 0 -53 -2 -58 -21 -58 -21 0 -22 3 -16 91 6 96 10 110 29 91 8 -8 17
-8 30 -1 10 5 24 9 31 8 29 -4 37 2 37 27 0 33 33 30 38 -4z m-2868 -7 c0 -16
6 -25 15 -25 8 0 15 -4 15 -10 0 -5 -7 -10 -15 -10 -12 0 -15 -14 -15 -64 0
-48 4 -65 15 -70 26 -9 16 -27 -12 -24 -28 3 -28 4 -31 81 l-3 78 -32 -6 c-50
-11 -57 -22 -57 -91 0 -50 -3 -64 -15 -64 -12 0 -15 17 -15 90 0 73 3 90 15
90 8 0 15 -5 15 -11 0 -8 5 -7 16 2 9 7 29 12 45 11 25 -2 29 1 29 23 0 16 6
25 15 25 9 0 15 -9 15 -25z m-525 -28 c15 -12 22 -12 45 0 32 15 73 5 84 -22
3 -9 6 -48 6 -86 0 -62 -2 -69 -20 -69 -18 0 -20 7 -20 75 0 41 -2 75 -4 75
-2 0 -11 3 -19 6 -29 11 -47 -24 -47 -92 0 -50 -3 -64 -15 -64 -12 0 -15 14
-15 69 0 73 -13 97 -44 85 -24 -9 -36 -45 -36 -105 0 -37 -4 -49 -15 -49 -12
0 -15 17 -15 90 0 73 3 90 15 90 8 0 15 -5 15 -11 0 -5 10 -3 22 5 27 20 39
20 63 3z m289 2 c28 -13 36 -35 36 -106 0 -29 5 -53 10 -53 6 0 10 -4 10 -10
0 -5 -11 -10 -25 -10 -14 0 -25 5 -25 10 0 6 -13 4 -30 -5 -37 -19 -65 -12
-86 20 -27 42 15 85 82 85 21 0 25 4 22 23 -4 27 -55 38 -64 13 -3 -9 -15 -16
-25 -16 -42 0 14 57 58 59 7 1 23 -4 37 -10z m509 -16 c9 -9 17 -20 17 -25 0
-13 -27 -9 -40 7 -14 17 -56 20 -65 5 -10 -16 12 -37 47 -44 42 -8 58 -23 58
-56 0 -36 -24 -55 -70 -55 -42 0 -70 18 -70 46 0 25 17 24 30 -1 11 -21 45
-26 69 -11 23 15 5 39 -37 51 -47 12 -65 31 -60 62 6 45 79 58 121 21z m362
14 c15 -12 22 -12 45 0 32 15 73 5 84 -22 3 -9 6 -48 6 -86 0 -62 -2 -69 -20
-69 -18 0 -20 7 -20 75 0 41 -2 75 -4 75 -2 0 -11 3 -19 6 -29 11 -47 -24 -47
-92 0 -50 -3 -64 -15 -64 -12 0 -15 14 -15 69 0 77 -14 100 -48 82 -21 -11
-32 -50 -32 -112 0 -28 -4 -39 -15 -39 -12 0 -15 17 -15 90 0 73 3 90 15 90 8
0 15 -5 15 -11 0 -5 10 -3 22 5 27 20 39 20 63 3z m290 0 c15 -12 22 -12 45 0
32 15 73 5 84 -22 3 -9 6 -48 6 -86 0 -62 -2 -69 -20 -69 -18 0 -20 7 -20 75
0 41 -2 75 -4 75 -2 0 -11 3 -19 6 -29 11 -47 -24 -47 -92 0 -50 -3 -64 -15
-64 -12 0 -15 14 -15 69 0 77 -14 100 -48 82 -21 -11 -32 -50 -32 -112 0 -28
-4 -39 -15 -39 -12 0 -15 17 -15 90 0 73 3 90 15 90 8 0 15 -5 15 -11 0 -5 10
-3 22 5 27 20 39 20 63 3z m312 -14 c7 -9 13 -45 13 -80 0 -35 4 -63 10 -63
15 0 12 -17 -5 -24 -8 -3 -20 0 -27 8 -10 10 -17 10 -39 -1 -56 -28 -113 13
-90 63 12 26 47 44 87 44 21 0 25 4 22 23 -4 32 -46 36 -69 5 -14 -18 -21 -20
-30 -11 -9 9 -5 18 16 38 22 23 32 26 63 21 20 -3 43 -13 49 -23z m153 7 c0
-13 -7 -20 -18 -20 -31 0 -42 -22 -42 -87 0 -49 -3 -63 -15 -63 -12 0 -15 17
-15 90 0 73 3 90 15 90 8 0 15 -5 15 -12 0 -8 6 -6 17 5 23 23 43 22 43 -3z
m224 -2 c15 -13 29 -38 32 -55 l7 -33 -67 0 c-59 0 -66 -2 -66 -20 0 -38 70
-51 84 -15 7 19 36 19 36 1 0 -21 -49 -56 -77 -56 -14 0 -37 13 -54 29 -81 81
20 224 105 149z m184 -5 c23 -24 25 -28 10 -31 -10 -2 -25 4 -34 13 -20 20
-58 16 -62 -7 -2 -12 8 -20 40 -28 56 -15 68 -26 68 -61 0 -33 -31 -59 -71
-59 -30 0 -79 34 -79 56 0 22 26 17 42 -8 13 -20 19 -21 44 -13 44 16 35 36
-21 54 -45 14 -50 19 -53 48 -6 61 68 84 116 36z m360 11 c23 -16 30 -44 11
-44 -6 0 -17 7 -26 16 -20 19 -57 14 -61 -8 -2 -12 5 -19 25 -24 81 -20 106
-61 63 -104 -39 -39 -130 -14 -130 35 0 22 23 18 38 -5 13 -22 33 -25 62 -10
27 14 15 37 -23 44 -75 15 -98 58 -51 95 32 25 61 27 92 5z m184 3 c10 -11 17
-11 42 1 26 13 33 13 55 1 24 -14 26 -20 29 -97 2 -68 0 -82 -13 -82 -12 0
-15 13 -15 63 0 73 -9 90 -41 85 -22 -3 -24 -8 -27 -75 -3 -65 -5 -73 -22 -73
-18 0 -20 7 -20 68 0 71 -11 95 -39 84 -26 -9 -31 -23 -31 -89 0 -56 -2 -63
-20 -63 -19 0 -20 7 -20 91 l0 91 24 -4 c14 -3 31 -1 38 3 19 13 46 11 60 -4z
m296 -3 c19 -13 22 -24 22 -78 0 -35 5 -67 12 -74 8 -8 9 -15 2 -22 -11 -11
-44 -3 -44 11 0 4 -13 1 -28 -8 -37 -21 -75 -11 -91 23 -17 39 6 70 61 81 33
7 43 13 43 28 0 29 -39 31 -64 4 -16 -17 -24 -20 -32 -12 -9 9 -5 18 14 37 30
30 71 34 105 10z m395 5 c26 -12 47 -47 47 -79 0 -18 -7 -20 -65 -20 -64 0
-77 -8 -57 -36 14 -21 41 -23 65 -3 14 10 32 19 41 19 23 0 0 -45 -31 -59 -38
-18 -68 -13 -97 15 -38 39 -37 105 3 145 31 31 55 36 94 18z m113 0 c4 -8 9
-8 17 0 19 19 47 13 47 -9 0 -13 -7 -20 -20 -20 -27 0 -40 -30 -40 -94 0 -49
-2 -56 -20 -56 -18 0 -20 7 -20 88 0 49 3 92 7 95 9 10 21 8 29 -4z m503 -6
c12 -10 24 -35 28 -55 l6 -38 -67 0 c-47 0 -66 -4 -66 -13 0 -35 57 -50 80
-22 19 23 49 19 43 -5 -14 -52 -97 -67 -138 -25 -20 19 -25 34 -25 72 0 26 6
55 13 64 31 40 91 51 126 22z m-3289 -63 c0 -56 3 -71 18 -78 19 -10 43 -5 54
12 4 6 8 39 8 74 0 55 2 62 20 62 19 0 20 -7 20 -90 0 -73 -3 -90 -15 -90 -8
0 -15 4 -15 9 0 5 -13 3 -30 -5 -25 -13 -34 -13 -57 -2 -27 13 -28 17 -31 96
-2 68 0 82 13 82 12 0 15 -14 15 -70z m1090 -20 c0 -83 -1 -90 -20 -90 -19 0
-20 7 -20 90 0 83 1 90 20 90 19 0 20 -7 20 -90z m450 -84 c0 -18 -7 -39 -15
-46 -21 -17 -31 -5 -14 16 11 13 11 18 2 21 -22 8 -15 43 7 43 16 0 20 -7 20
-34z m-2132 -483 c3 -10 -12 -13 -52 -13 -53 0 -56 -1 -56 -25 0 -23 3 -25 50
-25 38 0 50 -4 50 -15 0 -11 -12 -15 -50 -15 -47 0 -50 -2 -50 -25 0 -24 3
-25 55 -25 30 0 55 -4 55 -10 0 -6 -30 -10 -70 -10 l-70 0 0 90 0 91 67 -3
c42 -2 68 -8 71 -15z m192 -13 c0 -11 5 -20 10 -20 6 0 10 -7 10 -15 0 -8 -4
-15 -10 -15 -15 0 -12 -77 3 -83 9 -3 9 -8 1 -16 -23 -25 -44 -1 -44 50 0 27
-4 49 -10 49 -5 0 -10 7 -10 15 0 8 4 15 9 15 5 0 11 9 14 20 3 11 10 20 16
20 6 0 11 -9 11 -20z m-72 -32 c18 -18 16 -118 -2 -118 -11 0 -16 14 -18 48
-3 39 -6 47 -23 47 -17 0 -20 -8 -23 -47 -2 -34 -7 -48 -18 -48 -11 0 -14 15
-14 65 l0 65 43 0 c24 0 48 -5 55 -12z m196 -4 c9 -8 16 -19 16 -24 0 -5 3
-15 6 -24 5 -13 -2 -16 -40 -16 -25 0 -46 -5 -46 -10 0 -16 30 -24 43 -11 16
16 37 14 37 -4 0 -16 -30 -35 -55 -35 -24 0 -65 46 -65 72 0 57 66 90 104 52z
m116 6 c0 -6 -11 -15 -25 -20 -22 -8 -25 -16 -25 -55 0 -33 -4 -45 -15 -45
-12 0 -15 14 -15 65 l0 65 40 0 c22 0 40 -5 40 -10z"/>
<path d="M8897 6043 c-71 -24 -107 -61 -107 -111 0 -78 67 -109 142 -65 33 19
33 20 36 106 3 97 5 95 -71 70z"/>
<path d="M5877 6240 c-48 -41 -60 -90 -55 -210 6 -147 48 -206 142 -204 93 2
127 59 128 213 1 152 -38 220 -130 229 -44 4 -52 1 -85 -28z"/>
<path d="M7420 6229 c-14 -5 -35 -20 -47 -31 -22 -20 -23 -29 -23 -165 0 -128
2 -145 19 -162 55 -55 127 -63 169 -18 72 77 80 274 14 348 -30 34 -89 46
-132 28z"/>
<path d="M7974 6039 c-69 -26 -99 -59 -99 -110 0 -76 72 -106 147 -62 33 19
33 20 36 106 3 100 3 100 -84 66z"/>
<path d="M9480 5371 c-23 -44 -4 -101 33 -101 33 0 47 19 47 60 0 20 -5 41
-12 48 -18 18 -56 14 -68 -7z"/>
<path d="M5840 5321 c-42 -7 -56 -45 -21 -56 30 -9 61 11 61 40 0 14 -1 24 -2
24 -2 -1 -19 -4 -38 -8z"/>
<path d="M7315 5325 c-5 -2 -22 -6 -37 -9 -31 -7 -39 -40 -13 -50 28 -10 65
11 65 39 0 14 -1 25 -2 24 -2 0 -7 -2 -13 -4z"/>
<path d="M7658 5389 c-35 -20 -21 -39 27 -39 48 0 55 9 29 34 -18 18 -32 20
-56 5z"/>
<path d="M8669 5304 c-11 -14 -10 -18 5 -29 24 -18 60 -4 64 24 3 17 -2 21
-26 21 -16 0 -36 -7 -43 -16z"/>
<path d="M9092 5384 c-34 -23 -26 -34 24 -34 49 0 55 12 18 37 -17 11 -23 10
-42 -3z"/>
<path d="M9682 5378 c-21 -21 -13 -28 33 -28 43 0 45 1 35 20 -12 22 -49 27
-68 8z"/>
<path d="M6140 4690 c0 -5 11 -10 25 -10 14 0 25 5 25 10 0 6 -11 10 -25 10
-14 0 -25 -4 -25 -10z"/>
<path d="M10611 6229 c-13 -5 -36 -18 -52 -30 l-29 -20 0 -125 c0 -68 3 -124
6 -124 3 0 25 12 48 28 22 15 65 39 94 52 61 29 66 42 60 132 -4 48 -9 65 -27
79 -25 20 -62 23 -100 8z"/>
<path d="M10887 6210 c-43 -27 -47 -33 -47 -69 0 -38 1 -39 28 -32 15 5 49 20
76 35 27 14 55 26 63 26 25 0 28 32 4 52 -33 26 -70 22 -124 -12z"/>
<path d="M9872 5378 c-7 -7 -12 -25 -12 -42 0 -33 -4 -35 54 32 19 22 19 22
-5 22 -14 0 -30 -5 -37 -12z"/>
<path d="M10286 4731 c-4 -6 -5 -15 -1 -20 3 -6 -13 -11 -36 -13 -61 -4 -64
-28 -4 -28 42 0 46 -2 40 -20 -9 -29 16 -26 45 5 l24 26 -31 30 c-19 20 -33
27 -37 20z"/>
<path d="M6436 4712 c-9 -26 -1 -41 13 -26 5 5 5 18 1 29 -7 19 -7 19 -14 -3z"/>
</g>
</svg>
