<svg id="visual" viewBox="0 0 900 600" width="900" height="600" xmlns="http://www.w3.org/2000/svg" xmlns:xlink="http://www.w3.org/1999/xlink" version="1.1"><rect x="0" y="0" width="900" height="600" fill="#67799f"></rect><path d="M0 360L129 402L257 446L386 430L514 366L643 409L771 417L900 441L900 601L771 601L643 601L514 601L386 601L257 601L129 601L0 601Z" fill="#365172"></path><path d="M0 422L129 396L257 456L386 436L514 404L643 403L771 411L900 460L900 601L771 601L643 601L514 601L386 601L257 601L129 601L0 601Z" fill="#2a3f57"></path><path d="M0 510L129 471L257 465L386 481L514 446L643 450L771 490L900 464L900 601L771 601L643 601L514 601L386 601L257 601L129 601L0 601Z" fill="#1f2e3d"></path><path d="M0 489L129 487L257 500L386 482L514 501L643 538L771 520L900 513L900 601L771 601L643 601L514 601L386 601L257 601L129 601L0 601Z" fill="#161d25"></path><path d="M0 548L129 568L257 536L386 558L514 538L643 567L771 572L900 573L900 601L771 601L643 601L514 601L386 601L257 601L129 601L0 601Z" fill="#080a0c"></path></svg>