<svg id="visual" viewBox="0 0 900 600" width="900" height="600" xmlns="http://www.w3.org/2000/svg" xmlns:xlink="http://www.w3.org/1999/xlink" version="1.1"><rect x="0" y="0" width="900" height="600" fill="#67799f"></rect><path d="M0 399L129 349L257 374L386 406L514 396L643 416L771 388L900 394L900 601L771 601L643 601L514 601L386 601L257 601L129 601L0 601Z" fill="#365172"></path><path d="M0 412L129 476L257 470L386 469L514 404L643 441L771 467L900 438L900 601L771 601L643 601L514 601L386 601L257 601L129 601L0 601Z" fill="#2a3f57"></path><path d="M0 464L129 497L257 482L386 507L514 438L643 448L771 497L900 490L900 601L771 601L643 601L514 601L386 601L257 601L129 601L0 601Z" fill="#1f2e3d"></path><path d="M0 525L129 533L257 525L386 499L514 505L643 541L771 519L900 529L900 601L771 601L643 601L514 601L386 601L257 601L129 601L0 601Z" fill="#161d25"></path><path d="M0 526L129 558L257 540L386 540L514 546L643 531L771 542L900 534L900 601L771 601L643 601L514 601L386 601L257 601L129 601L0 601Z" fill="#080a0c"></path></svg>